<svg width="61" height="15" viewBox="0 0 61 15" fill="none" xmlns="http://www.w3.org/2000/svg">
<path d="M9.58 14L6.88 10.1H6.72H3.9V14H0.66V-9.53674e-07H6.72C7.96 -9.53674e-07 9.03333 0.206666 9.94 0.619999C10.86 1.03333 11.5667 1.62 12.06 2.38C12.5533 3.14 12.8 4.04 12.8 5.08C12.8 6.12 12.5467 7.02 12.04 7.78C11.5467 8.52667 10.84 9.1 9.92 9.5L13.06 14H9.58ZM9.52 5.08C9.52 4.29333 9.26667 3.69333 8.76 3.28C8.25333 2.85333 7.51333 2.64 6.54 2.64H3.9V7.52H6.54C7.51333 7.52 8.25333 7.30667 8.76 6.88C9.26667 6.45333 9.52 5.85333 9.52 5.08ZM25.487 8.66C25.487 8.7 25.467 8.98 25.427 9.5H17.287C17.4337 10.1667 17.7804 10.6933 18.327 11.08C18.8737 11.4667 19.5537 11.66 20.367 11.66C20.927 11.66 21.4204 11.58 21.847 11.42C22.287 11.2467 22.6937 10.98 23.067 10.62L24.727 12.42C23.7137 13.58 22.2337 14.16 20.287 14.16C19.0737 14.16 18.0004 13.9267 17.067 13.46C16.1337 12.98 15.4137 12.32 14.907 11.48C14.4004 10.64 14.147 9.68667 14.147 8.62C14.147 7.56667 14.3937 6.62 14.887 5.78C15.3937 4.92667 16.0804 4.26667 16.947 3.8C17.827 3.32 18.807 3.08 19.887 3.08C20.9404 3.08 21.8937 3.30667 22.747 3.76C23.6004 4.21333 24.267 4.86667 24.747 5.72C25.2404 6.56 25.487 7.54 25.487 8.66ZM19.907 5.44C19.2004 5.44 18.607 5.64 18.127 6.04C17.647 6.44 17.3537 6.98667 17.247 7.68H22.547C22.4404 7 22.147 6.46 21.667 6.06C21.187 5.64667 20.6004 5.44 19.907 5.44ZM37.9042 8.66C37.9042 8.7 37.8842 8.98 37.8442 9.5H29.7042C29.8509 10.1667 30.1976 10.6933 30.7442 11.08C31.2909 11.4667 31.9709 11.66 32.7842 11.66C33.3442 11.66 33.8376 11.58 34.2642 11.42C34.7042 11.2467 35.1109 10.98 35.4842 10.62L37.1442 12.42C36.1309 13.58 34.6509 14.16 32.7042 14.16C31.4909 14.16 30.4176 13.9267 29.4842 13.46C28.5509 12.98 27.8309 12.32 27.3242 11.48C26.8176 10.64 26.5642 9.68667 26.5642 8.62C26.5642 7.56667 26.8109 6.62 27.3042 5.78C27.8109 4.92667 28.4976 4.26667 29.3642 3.8C30.2442 3.32 31.2242 3.08 32.3042 3.08C33.3576 3.08 34.3109 3.30667 35.1642 3.76C36.0176 4.21333 36.6842 4.86667 37.1642 5.72C37.6576 6.56 37.9042 7.54 37.9042 8.66ZM32.3242 5.44C31.6176 5.44 31.0242 5.64 30.5442 6.04C30.0642 6.44 29.7709 6.98667 29.6642 7.68H34.9642C34.8576 7 34.5642 6.46 34.0842 6.06C33.6042 5.64667 33.0176 5.44 32.3242 5.44ZM43.4014 14.16C42.5081 14.16 41.6347 14.0533 40.7814 13.84C39.9281 13.6133 39.2481 13.3333 38.7414 13L39.7814 10.76C40.2614 11.0667 40.8414 11.32 41.5214 11.52C42.2014 11.7067 42.8681 11.8 43.5214 11.8C44.8414 11.8 45.5014 11.4733 45.5014 10.82C45.5014 10.5133 45.3214 10.2933 44.9614 10.16C44.6014 10.0267 44.0481 9.91333 43.3014 9.82C42.4214 9.68667 41.6947 9.53333 41.1214 9.36C40.5481 9.18667 40.0481 8.88 39.6214 8.44C39.2081 8 39.0014 7.37333 39.0014 6.56C39.0014 5.88 39.1947 5.28 39.5814 4.76C39.9814 4.22667 40.5547 3.81333 41.3014 3.52C42.0614 3.22667 42.9547 3.08 43.9814 3.08C44.7414 3.08 45.4947 3.16667 46.2414 3.34C47.0014 3.5 47.6281 3.72667 48.1214 4.02L47.0814 6.24C46.1347 5.70667 45.1014 5.44 43.9814 5.44C43.3147 5.44 42.8147 5.53333 42.4814 5.72C42.1481 5.90667 41.9814 6.14667 41.9814 6.44C41.9814 6.77333 42.1614 7.00667 42.5214 7.14C42.8814 7.27333 43.4547 7.4 44.2414 7.52C45.1214 7.66667 45.8414 7.82667 46.4014 8C46.9614 8.16 47.4481 8.46 47.8614 8.9C48.2747 9.34 48.4814 9.95333 48.4814 10.74C48.4814 11.4067 48.2814 12 47.8814 12.52C47.4814 13.04 46.8947 13.4467 46.1214 13.74C45.3614 14.02 44.4547 14.16 43.4014 14.16ZM60.7464 8.66C60.7464 8.7 60.7264 8.98 60.6864 9.5H52.5464C52.6931 10.1667 53.0397 10.6933 53.5864 11.08C54.1331 11.4667 54.8131 11.66 55.6264 11.66C56.1864 11.66 56.6797 11.58 57.1064 11.42C57.5464 11.2467 57.9531 10.98 58.3264 10.62L59.9864 12.42C58.9731 13.58 57.4931 14.16 55.5464 14.16C54.3331 14.16 53.2597 13.9267 52.3264 13.46C51.3931 12.98 50.6731 12.32 50.1664 11.48C49.6597 10.64 49.4064 9.68667 49.4064 8.62C49.4064 7.56667 49.6531 6.62 50.1464 5.78C50.6531 4.92667 51.3397 4.26667 52.2064 3.8C53.0864 3.32 54.0664 3.08 55.1464 3.08C56.1997 3.08 57.1531 3.30667 58.0064 3.76C58.8597 4.21333 59.5264 4.86667 60.0064 5.72C60.4997 6.56 60.7464 7.54 60.7464 8.66ZM55.1664 5.44C54.4597 5.44 53.8664 5.64 53.3864 6.04C52.9064 6.44 52.6131 6.98667 52.5064 7.68H57.8064C57.6997 7 57.4064 6.46 56.9264 6.06C56.4464 5.64667 55.8597 5.44 55.1664 5.44Z" fill="#2A2B31"/>
</svg>
